<?xml version="1.0" encoding="utf-8"?>
<!-- Generator: Adobe Illustrator 22.1.0, SVG Export Plug-In . SVG Version: 6.00 Build 0)  -->
<svg version="1.1" id="Layer_1" xmlns="http://www.w3.org/2000/svg" xmlns:xlink="http://www.w3.org/1999/xlink" x="0px" y="0px"
	 viewBox="0 0 32 32" style="enable-background:new 0 0 32 32;" xml:space="preserve">
<style type="text/css">
	.st0{fill:#FFFFFF;}
</style>
<path id="feedback" class="st0" d="M16,2.5C7.2,2.5,0,8.3,0,15.4c0,3.3,1.5,6.2,4,8.5l0,0c0,0,0,0,0,0C4,24,4.1,24.1,4.2,24.1
	c0.6,0.6,1.9,2.3,1,5.3c0,0,3.7,0.5,5.4-1.9l0,0c1.7,0.5,3.5,0.8,5.4,0.8c8.8,0,16-5.8,16-12.9S24.8,2.5,16,2.5z M9.1,9.9h8.2
	c0.7,0,1.3,0.6,1.3,1.3c0,0.7-0.6,1.3-1.3,1.3H9.1c-0.7,0-1.3-0.6-1.3-1.3C7.8,10.5,8.4,9.9,9.1,9.9z M9.1,14.5h11.3
	c0.7,0,1.3,0.6,1.3,1.3c0,0.7-0.6,1.3-1.3,1.3H9.1c-0.7,0-1.3-0.6-1.3-1.3C7.8,15.1,8.4,14.5,9.1,14.5z M22.9,21.8H9.1
	c-0.7,0-1.3-0.6-1.3-1.3c0-0.7,0.6-1.3,1.3-1.3h13.8c0.7,0,1.3,0.6,1.3,1.3C24.2,21.2,23.6,21.8,22.9,21.8z"/>
</svg>
