<?xml version="1.0" encoding="utf-8"?>
<!-- Generator: Adobe Illustrator 22.1.0, SVG Export Plug-In . SVG Version: 6.00 Build 0)  -->
<svg version="1.1" id="SlickPie_Icons" xmlns="http://www.w3.org/2000/svg" xmlns:xlink="http://www.w3.org/1999/xlink" x="0px"
	 y="0px" viewBox="0 0 32 32" style="enable-background:new 0 0 32 32;" xml:space="preserve">
<style type="text/css">
	.st0{fill:#40C4D9;}
</style>
<path id="calender" class="st0" d="M29.2,3.1h-4.3v-2c0-0.5-0.4-1-1-1c-0.5,0-1,0.4-1,1v2h-6v-2c0-0.5-0.4-1-1-1c-0.5,0-1,0.4-1,1v2
	H9v-2c0-0.5-0.4-1-1-1c-0.5,0-1,0.4-1,1v2H2.8c-1.5,0-2.6,1.2-2.6,2.6v23.5c0,1.5,1.2,2.6,2.6,2.6h26.5c1.5,0,2.6-1.2,2.6-2.6V5.7
	C31.9,4.3,30.7,3.1,29.2,3.1z M29.7,29.1c0,0.4-0.3,0.7-0.7,0.7H3.1c-0.4,0-0.7-0.3-0.7-0.7v-23c0-0.4,0.3-0.7,0.7-0.7h4v2
	c0,0.5,0.4,1,1,1c0.5,0,1-0.4,1-1v-2h6v2c0,0.5,0.4,1,1,1c0.5,0,1-0.4,1-1v-2h6v2c0,0.5,0.4,1,1,1c0.5,0,1-0.4,1-1v-2H29
	c0.4,0,0.7,0.3,0.7,0.7V29.1z M9.4,15.1c1.1,0,1.9-0.9,1.9-2s-0.9-2-1.9-2c-1.1,0-1.9,0.9-1.9,2C7.5,14.2,8.3,15.1,9.4,15.1z
	 M16.1,15.1c1.1,0,1.9-0.9,1.9-2s-0.9-2-1.9-2c-1.1,0-1.9,0.9-1.9,2C14.2,14.2,15,15.1,16.1,15.1z M22.6,15.1c1,0,1.9-0.9,1.9-2
	s-0.9-2-1.9-2c-1.1,0-1.9,0.9-1.9,2S21.6,15.1,22.6,15.1z M9.4,21c1.1,0,1.9-0.9,1.9-2s-0.9-2-1.9-2c-1.1,0-1.9,0.9-1.9,2
	C7.5,20.1,8.3,21,9.4,21z M16.1,21c1.1,0,1.9-0.9,1.9-2s-0.9-2-1.9-2c-1.1,0-1.9,0.9-1.9,2C14.2,20.1,15,21,16.1,21z M22.6,21
	c1,0,1.9-0.9,1.9-2s-0.9-2-1.9-2c-1.1,0-1.9,0.9-1.9,2S21.6,21,22.6,21z M9.4,26.7c1.1,0,1.9-0.9,1.9-2s-0.9-2-1.9-2
	c-1.1,0-1.9,0.9-1.9,2C7.5,25.8,8.3,26.7,9.4,26.7z M16.1,26.7c1.1,0,1.9-0.9,1.9-2s-0.9-2-1.9-2c-1.1,0-1.9,0.9-1.9,2
	C14.2,25.8,15,26.7,16.1,26.7z M22.6,26.7c1,0,1.9-0.9,1.9-2s-0.9-2-1.9-2c-1.1,0-1.9,0.9-1.9,2C20.7,25.8,21.6,26.7,22.6,26.7z"/>
</svg>
