<?xml version="1.0" encoding="utf-8"?>
<!-- Generator: Adobe Illustrator 23.0.3, SVG Export Plug-In . SVG Version: 6.00 Build 0)  -->
<svg version="1.1" id="Layer_1" xmlns="http://www.w3.org/2000/svg" xmlns:xlink="http://www.w3.org/1999/xlink" x="0px" y="0px"
	 viewBox="0 0 586.3 293.4" style="enable-background:new 0 0 586.3 293.4;" xml:space="preserve">
<style type="text/css">
	.st0{fill:#367373;}
	.st1{fill:#40C4D9;}
	.st2{fill:#F55B41;}
	.st3{fill:#FF9B43;}
	.st4{fill:#A9CC8A;}
	.st5{fill:#43A773;}
	.st6{fill:#656565;}
</style>
<path class="st0" d="M293.1,133.3c-84.9,0-154.4,66-159.9,149.6c-0.4,5.7,4.1,10.5,9.8,10.5l0,0c5.2,0,9.5-4.1,9.8-9.3
	C157.7,210.9,218.6,153,293,153s135.4,57.9,140.2,131.1c0.3,5.2,4.6,9.3,9.8,9.3l0,0c5.7,0,10.2-4.8,9.8-10.5
	C447.5,199.4,378,133.3,293.1,133.3z"/>
<g>
	<path class="st1" d="M350.2,86c-0.6-0.2-1.3-0.4-2.2-0.6c-5-1.1-8,0.7-9.4,3.3h0.1c1.5-0.8,3.4-1,5.6-0.4c4,1.2,6.4,5,4.9,9.9
		c-1.4,4.7-6.2,7.4-11.3,5.9c-6.3-1.9-7.9-7.6-6.2-13.2c1.4-4.4,4.1-7.6,7.4-9.2c3-1.4,6.4-1.7,10.2-0.7c1,0.2,1.7,0.4,2.2,0.6
		L350.2,86z M343.5,96.9c0.7-2.2,0.1-4.4-2.3-5.1c-1.5-0.5-3,0.1-3.9,1.1c-0.2,0.2-0.4,0.7-0.6,1.3c-0.7,2.5-0.1,5.2,2.4,5.9
		C341,100.7,342.8,99.3,343.5,96.9z"/>
	<path class="st1" d="M370.3,100.6c-2.2,7.3-6.7,11.4-12.7,9.6c-6.1-1.9-7.1-8.2-5.1-14.9c2.1-6.8,6.6-11.4,12.8-9.5
		C371.6,87.8,372.3,94.2,370.3,100.6z M358,97c-1.7,5.4-1.2,8.4,1,9c2.1,0.7,4.1-1.7,5.8-7.1c1.6-5.2,1.3-8.3-0.9-9
		C361.8,89.4,359.7,91.5,358,97z"/>
</g>
<g>
	<path class="st1" d="M436.4,125l-2.4,2.7l-21.7,8.8l-4.5-4.1l20.9-8l0.1-0.1l-8.4-7.6l3.2-3.5L436.4,125z"/>
	<path class="st1" d="M448,141.9l-7.1-6.4L438,138c0.4,0.3,0.8,0.6,1.2,1c1.8,1.6,3.2,3.6,3.6,5.7c0.5,2.2,0,4.5-1.9,6.6
		c-3.1,3.4-8.7,3.8-13.7-0.7c-2.2-2-3.6-4.2-4.2-5.6l3.7-2.5c0.5,1.1,1.7,3.1,3.3,4.6c1.8,1.6,4.4,2.5,6.2,0.5
		c1.7-1.9,1.3-4.4-2.4-7.7c-1-0.9-1.8-1.5-2.6-2.1l9.9-8.5l10.1,9.1L448,141.9z"/>
</g>
<g>
	<path class="st1" d="M229.9,109.8l-1.8-5.6l-10.4,3.3l-1.1-3.6l4.3-17.2l6.7-2.1l4.4,13.8l2.8-0.9l1.3,4.1l-2.8,0.9l1.8,5.6
		L229.9,109.8z M226.8,100l-1.7-5.2c-0.4-1.4-0.8-2.9-1.2-4.4h-0.1c-0.3,1.8-0.5,3.3-0.8,5.1l-1.5,6.1v0.1L226.8,100z"/>
	<path class="st1" d="M253.9,89.1c2.3,7.3,1,13.2-5,15.1c-6.1,1.9-10.5-2.7-12.7-9.3c-2.2-6.8-1-13.1,5.1-15.1
		C247.6,77.8,251.8,82.6,253.9,89.1z M241.7,93.1c1.7,5.4,3.8,7.6,5.9,6.9s2.4-3.7,0.7-9.1c-1.7-5.2-3.7-7.6-5.9-6.9
		C240.5,84.6,240,87.6,241.7,93.1z"/>
</g>
<path class="st2" d="M190.9,18.3c-0.4,0.2-6.5,2.5-7,2.7C81.6,62,7.6,159,0,274.1c-0.7,10.4,7.6,19.3,18,19.3l0,0
	c9.6,0,17.4-7.5,18-17c6.7-101.5,72.2-186.9,162.8-222.5c0.5-0.2,6.7-2.5,7.2-2.7c4.1-1.5,8.3-2.9,12.6-4.1l-10-34.7
	C202.7,14.1,196.8,16.1,190.9,18.3z"/>
<path class="st3" d="M372.3,10.8C347.1,3.8,320.6,0,293.1,0c-27.2,0-53.6,3.7-78.6,10.7l10,34.7c21.9-6,44.9-9.3,68.6-9.3
	c23.8,0,46.8,3.2,68.6,9.3L372.3,10.8z"/>
<path class="st4" d="M479.7,66.9c-23-19-49-34.5-77.1-45.8c-0.3-0.1-6.2-2.4-6.5-2.5c-5.9-2.2-11.9-4.2-18-6.1l-10.6,34.6
	c4.5,1.3,8.9,2.8,13.3,4.4c0.3,0.1,6.2,2.3,6.4,2.4c25.3,9.9,48.7,23.8,69.3,40.8L479.7,66.9z"/>
<path class="st5" d="M586.2,274.1c-4.6-69.3-33.2-132.1-77.6-180c-0.3-0.3-4.7-4.9-4.9-5.2c-6.2-6.4-12.7-12.4-19.4-18.2l-23.2,27.7
	c5.5,4.8,10.9,9.7,16,15c0.2,0.3,4.6,4.9,4.9,5.1c39,42,64.1,97,68.1,157.8c0.6,9.5,8.5,17,18,17
	C578.6,293.4,586.9,284.6,586.2,274.1z"/>
<g>
	<path class="st6" d="M183.9,260.9c1.9-0.3,4.5-0.6,8.2-0.6c3.8,0,6.4,0.7,8.2,2.2c1.8,1.3,2.9,3.6,2.9,6.2c0,2.7-0.8,4.9-2.5,6.4
		c-2.1,1.9-5.2,2.8-8.8,2.8c-0.8,0-1.5,0-2.1-0.2v9.7h-6V260.9z M190,273.2c0.5,0.1,1.1,0.2,2,0.2c3.2,0,5.2-1.6,5.2-4.4
		c0-2.5-1.7-4-4.8-4c-1.2,0-2,0.1-2.5,0.2V273.2z"/>
	<path class="st6" d="M222.5,282.8c0,1.8,0.1,3.6,0.3,4.7h-5.5l-0.4-2h-0.1c-1.3,1.6-3.3,2.4-5.6,2.4c-4,0-6.3-2.9-6.3-6
		c0-5.1,4.6-7.5,11.5-7.5v-0.2c0-1-0.6-2.5-3.6-2.5c-2,0-4.1,0.7-5.4,1.4l-1.1-3.9c1.4-0.8,4-1.8,7.6-1.8c6.5,0,8.6,3.8,8.6,8.4
		V282.8z M216.6,278.3c-3.2,0-5.7,0.8-5.7,3.1c0,1.6,1,2.3,2.4,2.3c1.5,0,2.8-1,3.2-2.2c0.1-0.3,0.1-0.7,0.1-1V278.3z"/>
	<path class="st6" d="M231.4,268l2.9,9.6c0.3,1.1,0.7,2.6,1,3.6h0.1c0.3-1.1,0.6-2.5,0.9-3.7l2.4-9.6h6.5l-4.6,12.9
		c-2.8,7.8-4.7,10.9-6.9,12.8c-2.1,1.8-4.3,2.5-5.9,2.7l-1.3-5.1c0.8-0.2,1.7-0.5,2.6-1c0.9-0.5,2-1.5,2.5-2.4
		c0.2-0.3,0.3-0.6,0.3-0.9c0-0.2,0-0.5-0.2-1l-7.2-17.9H231.4z"/>
	<path class="st6" d="M248,260.9c1.9-0.3,4.5-0.6,8.2-0.6c3.8,0,6.4,0.7,8.2,2.2c1.8,1.3,2.9,3.6,2.9,6.2c0,2.7-0.8,4.9-2.5,6.4
		c-2.1,1.9-5.2,2.8-8.8,2.8c-0.8,0-1.5,0-2.1-0.2v9.7h-6V260.9z M254,273.2c0.5,0.1,1.1,0.2,2,0.2c3.2,0,5.2-1.6,5.2-4.4
		c0-2.5-1.7-4-4.8-4c-1.2,0-2,0.1-2.5,0.2V273.2z"/>
	<path class="st6" d="M273.7,265.6c-1.9,0-3.2-1.4-3.2-3c0-1.7,1.3-3,3.2-3s3.2,1.3,3.2,3C277,264.2,275.7,265.6,273.7,265.6
		L273.7,265.6z M270.7,287.5V268h6.1v19.6H270.7z"/>
	<path class="st6" d="M286.3,279.7c0.2,2.5,2.7,3.7,5.5,3.7c2.1,0,3.8-0.3,5.4-0.8l0.8,4.1c-2,0.8-4.4,1.2-7.1,1.2
		c-6.6,0-10.4-3.8-10.4-10c0-5,3.1-10.4,9.9-10.4c6.3,0,8.7,4.9,8.7,9.8c0,1-0.1,2-0.2,2.4H286.3z M293.5,275.5c0-1.5-0.6-4-3.4-4
		c-2.6,0-3.6,2.4-3.8,4H293.5z"/>
	<path class="st6" d="M311.2,281.3c1.6,0.8,4.2,1.7,6.8,1.7c2.8,0,4.3-1.2,4.3-2.9c0-1.7-1.3-2.6-4.5-3.8c-4.5-1.6-7.4-4.1-7.4-8
		c0-4.6,3.9-8.1,10.2-8.1c3.1,0,5.3,0.6,6.9,1.4l-1.4,4.9c-1-0.5-3-1.3-5.6-1.3c-2.6,0-3.9,1.2-3.9,2.6c0,1.7,1.5,2.5,5,3.8
		c4.8,1.8,7,4.2,7,8c0,4.5-3.4,8.4-10.8,8.4c-3.1,0-6.1-0.8-7.6-1.7L311.2,281.3z"/>
	<path class="st6" d="M347.4,287c-1.1,0.5-3.1,0.9-5.4,0.9c-6.3,0-10.4-3.9-10.4-10c0-5.7,3.9-10.4,11.2-10.4c1.6,0,3.4,0.3,4.6,0.8
		l-1,4.5c-0.7-0.3-1.8-0.6-3.4-0.6c-3.2,0-5.3,2.3-5.2,5.4c0,3.6,2.4,5.5,5.4,5.5c1.4,0,2.6-0.2,3.5-0.6L347.4,287z"/>
	<path class="st6" d="M359.3,288c-5.7,0-10.1-3.8-10.1-10.1c0-6.3,4.2-10.4,10.5-10.4c6,0,10,4.1,10,10
		C369.6,284.7,364.6,288,359.3,288L359.3,288z M359.5,283.6c2.4,0,3.9-2.4,3.9-5.9c0-2.9-1.1-5.8-3.9-5.8c-2.9,0-4,3-4,5.9
		C355.5,281.1,356.9,283.6,359.5,283.6L359.5,283.6z"/>
	<path class="st6" d="M373.4,274.4c0-2.9,0-4.8-0.2-6.4h5.2l0.2,3.6h0.2c1-2.9,3.4-4.1,5.3-4.1c0.6,0,0.8,0,1.3,0.1v5.7
		c-0.5-0.1-1-0.2-1.6-0.2c-2.2,0-3.8,1.2-4.2,3.1c-0.1,0.4-0.1,0.8-0.1,1.4v9.9h-6.1V274.4z"/>
	<path class="st6" d="M393,279.7c0.2,2.5,2.7,3.7,5.5,3.7c2.1,0,3.8-0.3,5.4-0.8l0.8,4.1c-2,0.8-4.4,1.2-7.1,1.2
		c-6.6,0-10.4-3.8-10.4-10c0-5,3.1-10.4,9.9-10.4c6.3,0,8.7,4.9,8.7,9.8c0,1-0.1,2-0.2,2.4H393z M400.1,275.5c0-1.5-0.6-4-3.4-4
		c-2.6,0-3.6,2.4-3.8,4H400.1z"/>
</g>
</svg>
